<?xml version="1.0" encoding="UTF-8"?>
<svg xmlns="http://www.w3.org/2000/svg" xmlns:xlink="http://www.w3.org/1999/xlink" width="375pt" height="374.999991pt" viewBox="0 0 375 374.999991" version="1.2">
<defs>
<clipPath id="clip1">
  <path d="M 49.746094 33.914062 L 324.753906 33.914062 L 324.753906 337.664062 L 49.746094 337.664062 Z M 49.746094 33.914062 "/>
</clipPath>
</defs>
<g id="surface1">
<g clip-path="url(#clip1)" clip-rule="nonzero">
<path style=" stroke:none;fill-rule:nonzero;fill:rgb(0%,0%,0%);fill-opacity:1;" d="M 287.628906 106.570312 L 296.625 97.546875 L 307.042969 107.996094 C 307.988281 108.945312 309.410156 109.421875 310.355469 109.421875 C 311.304688 109.421875 312.722656 108.945312 313.671875 107.996094 C 315.566406 106.097656 315.566406 103.246094 313.671875 101.347656 L 299.941406 87.574219 L 286.207031 73.804688 C 284.316406 71.90625 281.472656 71.90625 279.578125 73.804688 C 277.6875 75.703125 277.6875 78.554688 279.578125 80.453125 L 289.996094 90.898438 L 281 99.921875 C 260.167969 79.976562 233.179688 67.15625 203.347656 63.355469 C 205.242188 60.507812 206.1875 56.707031 206.1875 52.910156 C 206.1875 42.460938 197.667969 33.914062 187.25 33.914062 C 176.832031 33.914062 168.308594 42.460938 168.308594 52.910156 C 168.308594 56.707031 169.257812 60.507812 171.625 63.355469 C 141.796875 66.679688 114.804688 79.976562 93.5 99.449219 L 84.976562 90.898438 L 95.394531 80.453125 C 97.289062 78.554688 97.289062 75.703125 95.394531 73.804688 C 93.5 71.90625 90.660156 71.90625 88.765625 73.804688 L 75.035156 87.574219 L 61.300781 101.347656 C 59.410156 103.246094 59.410156 106.097656 61.300781 107.996094 C 62.25 108.945312 63.667969 109.421875 64.617188 109.421875 C 65.5625 109.421875 66.984375 108.945312 67.929688 107.996094 L 78.347656 97.546875 L 86.871094 106.097656 C 64.144531 130.789062 49.9375 164.03125 49.9375 200.125 C 49.9375 276.105469 111.492188 337.839844 187.25 337.839844 C 263.007812 337.839844 324.5625 276.105469 324.5625 200.125 C 324.5625 164.03125 310.355469 130.789062 287.628906 106.570312 Z M 187.25 43.410156 C 192.457031 43.410156 196.71875 47.6875 196.71875 52.910156 C 196.71875 58.132812 192.457031 62.40625 187.25 62.40625 C 182.042969 62.40625 177.78125 58.132812 177.78125 52.910156 C 177.78125 47.6875 182.042969 43.410156 187.25 43.410156 Z M 187.25 328.34375 C 116.699219 328.34375 59.410156 270.882812 59.410156 200.125 C 59.410156 129.367188 116.699219 71.90625 187.25 71.90625 C 257.800781 71.90625 315.089844 129.367188 315.089844 200.125 C 315.089844 270.882812 257.800781 328.34375 187.25 328.34375 Z M 187.25 328.34375 "/>
</g>
<path style=" stroke:none;fill-rule:nonzero;fill:rgb(0%,0%,0%);fill-opacity:1;" d="M 285.734375 257.109375 C 295.207031 240.488281 300.886719 221.019531 300.886719 200.125 C 300.886719 179.703125 295.207031 160.234375 285.734375 143.613281 L 285.734375 142.664062 C 275.792969 125.566406 261.585938 111.320312 244.542969 101.347656 L 243.59375 101.347656 C 227.023438 91.851562 207.609375 86.152344 187.25 86.152344 C 166.890625 86.152344 147.476562 91.851562 130.90625 101.347656 L 129.957031 101.347656 C 112.914062 111.320312 98.707031 125.566406 88.765625 142.664062 L 88.292969 143.136719 L 88.292969 143.613281 C 78.820312 160.234375 73.613281 179.703125 73.613281 200.125 C 73.613281 221.019531 79.292969 240.015625 88.765625 257.109375 L 88.765625 258.058594 C 98.707031 275.15625 112.914062 289.402344 129.957031 299.375 L 130.90625 299.375 C 147.476562 308.871094 166.890625 314.570312 187.25 314.570312 C 207.609375 314.570312 227.023438 308.871094 243.59375 299.375 L 244.542969 299.375 C 261.585938 289.402344 275.792969 275.15625 285.734375 258.058594 Z M 243.59375 287.976562 L 241.226562 283.703125 C 239.808594 281.328125 236.964844 280.855469 234.597656 281.804688 C 232.230469 283.226562 231.757812 286.078125 232.703125 288.453125 L 235.070312 292.726562 C 222.289062 299.847656 207.609375 303.648438 191.984375 304.597656 L 191.984375 285.601562 C 191.984375 282.753906 190.089844 280.855469 187.25 280.855469 C 184.410156 280.855469 182.515625 282.753906 182.515625 285.601562 L 182.515625 304.597656 C 166.890625 304.125 152.210938 299.847656 139.425781 292.726562 L 141.796875 288.453125 C 143.214844 286.078125 142.269531 283.226562 139.902344 281.804688 C 137.535156 280.378906 134.691406 281.328125 133.273438 283.703125 L 130.90625 287.976562 C 118.121094 279.902344 107.230469 268.980469 99.179688 256.160156 L 103.441406 253.785156 C 105.808594 252.359375 106.285156 249.511719 105.335938 247.136719 C 103.917969 244.761719 101.074219 244.289062 98.707031 245.238281 L 94.445312 247.613281 C 87.816406 235.265625 84.03125 220.542969 83.082031 204.871094 L 102.023438 204.871094 C 104.863281 204.871094 106.757812 202.972656 106.757812 200.125 C 106.757812 197.273438 104.863281 195.375 102.023438 195.375 L 83.082031 195.375 C 83.554688 179.703125 87.816406 164.980469 94.917969 152.160156 L 99.179688 154.535156 C 100.128906 155.007812 100.601562 155.007812 101.546875 155.007812 C 102.96875 155.007812 104.863281 154.058594 105.808594 152.636719 C 107.230469 150.261719 106.285156 147.410156 103.917969 145.988281 L 99.65625 143.613281 C 107.703125 130.789062 118.59375 119.867188 131.378906 111.796875 L 133.746094 116.070312 C 134.691406 117.492188 136.113281 118.445312 138.007812 118.445312 C 138.953125 118.445312 139.425781 118.445312 140.375 117.96875 C 142.742188 116.542969 143.214844 113.695312 142.269531 111.320312 L 139.902344 107.046875 C 153.160156 100.398438 167.363281 96.125 182.988281 95.175781 L 182.988281 114.167969 C 182.988281 117.019531 184.882812 118.917969 187.722656 118.917969 C 190.5625 118.917969 192.457031 117.019531 192.457031 114.167969 L 192.457031 95.175781 C 208.082031 95.648438 222.761719 99.921875 235.546875 107.046875 L 233.179688 111.320312 C 231.757812 113.695312 232.703125 116.542969 235.070312 117.96875 C 236.019531 118.445312 236.492188 118.445312 237.441406 118.445312 C 238.859375 118.445312 240.753906 117.492188 241.699219 116.070312 L 244.070312 111.796875 C 256.851562 119.867188 267.742188 130.789062 275.792969 143.613281 L 271.53125 145.988281 C 268.214844 147.886719 267.742188 150.734375 269.164062 152.636719 C 270.109375 154.058594 271.53125 155.007812 273.425781 155.007812 C 274.371094 155.007812 274.84375 155.007812 275.792969 154.535156 L 280.054688 152.160156 C 286.683594 165.457031 290.945312 179.703125 291.890625 195.375 L 272.953125 195.375 C 270.109375 195.375 268.214844 197.273438 268.214844 200.125 C 268.214844 202.972656 270.109375 204.871094 272.953125 204.871094 L 291.890625 204.871094 C 291.417969 220.542969 287.15625 235.265625 280.054688 248.085938 L 275.792969 245.710938 C 273.425781 244.289062 270.582031 245.238281 269.164062 247.613281 C 267.742188 249.988281 268.691406 252.835938 271.058594 254.261719 L 275.320312 256.632812 C 266.796875 268.980469 255.90625 279.902344 243.59375 287.976562 Z M 243.59375 287.976562 "/>
<path style=" stroke:none;fill-rule:nonzero;fill:rgb(0%,0%,0%);fill-opacity:1;" d="M 253.539062 195.375 L 204.296875 195.375 C 202.402344 189.675781 198.140625 184.925781 191.984375 183.503906 L 191.984375 133.640625 C 191.984375 130.789062 190.089844 128.890625 187.25 128.890625 C 184.410156 128.890625 182.515625 130.789062 182.515625 133.640625 L 182.515625 183.503906 C 174.9375 185.402344 169.730469 192.523438 169.730469 200.597656 C 169.730469 210.097656 177.78125 218.167969 187.25 218.167969 C 195.300781 218.167969 201.929688 212.46875 204.296875 205.347656 L 253.539062 205.347656 C 256.378906 205.347656 258.273438 203.449219 258.273438 200.597656 C 258.273438 197.75 256.378906 195.375 253.539062 195.375 Z M 187.25 208.195312 C 182.988281 208.195312 179.199219 204.398438 179.199219 200.125 C 179.199219 195.847656 182.988281 192.050781 187.25 192.050781 C 191.511719 192.050781 195.300781 195.847656 195.300781 200.125 C 195.300781 204.398438 191.511719 208.195312 187.25 208.195312 Z M 187.25 208.195312 "/>
</g>
</svg>
